<?xml version="1.0" standalone="no"?>
<!DOCTYPE svg PUBLIC "-//W3C//DTD SVG 20010904//EN"
 "http://www.w3.org/TR/2001/REC-SVG-20010904/DTD/svg10.dtd">
<svg version="1.0" xmlns="http://www.w3.org/2000/svg"
 width="400.000000pt" height="400.000000pt" viewBox="0 0 400.000000 400.000000"
 preserveAspectRatio="xMidYMid meet">
<metadata>
Created by potrace 1.16, written by Peter Selinger 2001-2019
</metadata>
<g transform="translate(0.000000,400.000000) scale(0.100000,-0.100000)"
fill="#000000" stroke="none">
<path d="M1195 3679 c-147 -22 -315 -85 -442 -168 -78 -50 -202 -167 -265
-251 -67 -88 -142 -244 -176 -365 l-27 -100 0 -785 c0 -781 0 -785 22 -873 94
-369 372 -656 737 -761 154 -45 205 -47 1006 -43 833 4 796 1 980 70 353 133
610 458 660 832 8 65 10 295 8 825 -5 811 -2 776 -71 960 -104 275 -331 500
-607 600 -179 66 -140 63 -990 66 -426 1 -802 -2 -835 -7z m1655 -1669 l0
-840 -855 2 -855 3 0 830 c0 457 0 833 0 838 0 4 385 7 855 7 l855 0 0 -840z"/>
</g>
</svg>
